<?xml version="1.0" encoding="UTF-8"?>
<svg version="1.1" xmlns="http://www.w3.org/2000/svg" width="107" height="108">
<path d="M0 0 C35.31 0 70.62 0 107 0 C107 35.64 107 71.28 107 108 C71.69 108 36.38 108 0 108 C0 72.36 0 36.72 0 0 Z " fill="#3598DB" transform="translate(0,0)"/>
<path d="M0 0 C35.31 0 70.62 0 107 0 C107 35.64 107 71.28 107 108 C71.69 108 36.38 108 0 108 C0 72.36 0 36.72 0 0 Z M39 13 C38.67 13.66 38.34 14.32 38 15 C37.34773438 14.96519531 36.69546875 14.93039062 36.0234375 14.89453125 C28.93035624 14.67483404 24.81995526 15.57352687 19.3125 20.3125 C15.36212556 24.9034757 13.83255622 28.09002385 14.125 34.125 C14.2109375 36.74609375 14.2109375 36.74609375 14 39 C11.75 41.1875 11.75 41.1875 9 43 C5.4713767 47.95914626 4.04649874 51.83167086 5 58 C6.03333314 62.61156941 7.23717309 65.71056039 11.1875 68.4375 C14 71 14 71 14.24609375 72.98828125 C14.16386945 74.52401902 14.07105207 76.05921893 13.96875 77.59375 C14.03274979 82.52173355 16.19832902 87.02427725 19.49609375 90.640625 C23.9922868 94.54255812 27.40214788 95.12470809 33.1875 95.0625 C34.27417969 95.05347656 35.36085938 95.04445313 36.48046875 95.03515625 C37.31191406 95.02355469 38.14335938 95.01195313 39 95 C39.26941406 95.60328125 39.53882813 96.2065625 39.81640625 96.828125 C41.76460072 100.40302971 44.30797435 102.33199556 48 104 C54.34866739 105.10534834 59.68590861 104.28633693 65.34375 101.265625 C67.14277594 100.03501022 67.14277594 100.03501022 68.38671875 97.89453125 C70 96 70 96 72.48828125 95.49609375 C73.42027344 95.47675781 74.35226563 95.45742187 75.3125 95.4375 C81.46612871 95.07266035 85.04163662 93.69131383 89.75 89.625 C93.32860521 85.44996059 94.16791984 81.91795107 94.3125 76.5 C94.608708 72.47695685 94.69205637 71.36467009 97.375 68.1875 C98.24125 67.465625 99.1075 66.74375 100 66 C103.64661527 60.71869512 103.95805548 55.21417639 103 49 C101.12602208 44.55558494 99.01593117 41.67728745 95 39 C94.62890625 36.64453125 94.62890625 36.64453125 94.5625 33.8125 C94.11768788 27.14904001 92.50864894 23.32050027 87.5 18.6875 C83.32896653 15.87205241 80.63302669 14.82111998 75.5625 14.6875 C70.22479859 14.29968814 68.61305684 12.99337861 65 9 C55.35728489 4.53740045 46.82402942 5.65015418 39 13 Z " fill="#FDFEFE" transform="translate(0,0)"/>
<path d="M0 0 C1 1 1 1 1.40258789 3.66821289 C0.8621776 8.14060778 -1.36606499 10.26627652 -4.44140625 13.30859375 C-5.28214943 14.16506248 -5.28214943 14.16506248 -6.13987732 15.03883362 C-7.32697284 16.23874904 -8.52185521 17.43100413 -9.72387695 18.6159668 C-11.55710865 20.43215876 -13.34991012 22.28253354 -15.14257812 24.13867188 C-16.3024235 25.30174129 -17.464464 26.46262665 -18.62890625 27.62109375 C-19.42779015 28.45367958 -19.42779015 28.45367958 -20.24281311 29.30308533 C-23.17760032 32.13198592 -24.55716017 33.00081959 -28.69360352 32.99316406 C-31.64892279 32.10545537 -33.14503954 31.61481415 -35.2734375 29.48828125 C-35.78777344 28.97716797 -36.30210938 28.46605469 -36.83203125 27.93945312 C-37.34121094 27.40255859 -37.85039063 26.86566406 -38.375 26.3125 C-38.90738281 25.79494141 -39.43976562 25.27738281 -39.98828125 24.74414062 C-43.32498911 21.33526478 -44.71880164 18.93577123 -45 14 C-43.3125 12.375 -43.3125 12.375 -41 11 C-35.76716523 11.8485678 -32.44757237 16.28417272 -29 20 C-25.55106156 18.52028789 -23.35517546 16.57640468 -20.7421875 13.90234375 C-19.95199219 13.10119141 -19.16179688 12.30003906 -18.34765625 11.47460938 C-17.53167969 10.63736328 -16.71570313 9.80011719 -15.875 8.9375 C-14.24961294 7.27777378 -12.62211373 5.62011253 -10.9921875 3.96484375 C-9.91493408 2.86064087 -9.91493408 2.86064087 -8.81591797 1.73413086 C-5.65506852 -1.28435712 -4.12001233 -1.05641342 0 0 Z " fill="#F7FBFD" transform="translate(76,39)"/>
</svg>
