<?xml version="1.0" encoding="UTF-8"?>
<svg version="1.1" xmlns="http://www.w3.org/2000/svg" width="256" height="256">
<path d="M0 0 C0.82459717 0.02215576 1.64919434 0.04431152 2.4987793 0.06713867 C4.26422779 0.11963348 6.02934576 0.18440877 7.79394531 0.26025391 C10.62037993 0.3773989 13.4453427 0.44759727 16.2734375 0.51171875 C18.14069569 0.56801476 20.00788782 0.62655324 21.875 0.6875 C22.75148193 0.7095752 23.62796387 0.73165039 24.53100586 0.75439453 C34.67571331 1.19277642 40.70326897 6.20016018 47.5625 13.375 C55.94242717 23.67420081 55.94242717 23.67420081 56.375 29.625 C54.18443741 39.73528888 46.21594293 46.29316209 38.625 52.75 C34.67848053 56.14154017 31.30036612 59.91398695 27.8671875 63.81640625 C25.57240367 66.36400525 23.19210056 68.78143043 20.75 71.1875 C17.79093182 74.10518261 15.04493645 77.02910739 12.5625 80.375 C13.1915625 80.47296875 13.820625 80.5709375 14.46875 80.671875 C25.86525946 82.66283147 32.73888134 86.83762657 39.5625 96.375 C41.93739874 100.08434035 44.1610441 103.88300401 46.39013672 107.68115234 C49.84888865 113.4756848 53.606643 118.21192836 58.37109375 123.015625 C61.87300031 126.78594864 64.34133299 129.92512735 65.125 135.0625 C64.5625 138.375 64.5625 138.375 62.64453125 140.05859375 C58.28843289 141.91918329 54.37459233 141.81176256 49.6875 141.75 C48.81480469 141.76160156 47.94210938 141.77320313 47.04296875 141.78515625 C40.54602227 141.75584672 35.55985299 140.97157698 30.48828125 136.578125 C29.95589844 135.93359375 29.42351562 135.2890625 28.875 134.625 C28.33488281 133.99078125 27.79476562 133.3565625 27.23828125 132.703125 C25.5625 130.375 25.5625 130.375 23.76953125 127.08984375 C21.37499548 122.79932272 18.21987642 119.31789624 14.9375 115.6875 C13.77475452 114.3954183 12.6157563 113.09995241 11.4609375 111.80078125 C10.95224121 111.23786377 10.44354492 110.67494629 9.91943359 110.0949707 C8.48865299 108.28139579 7.52311461 106.47007927 6.5625 104.375 C5.9025 104.375 5.2425 104.375 4.5625 104.375 C3.0546875 102.40625 3.0546875 102.40625 1.4375 99.875 C0.89867187 99.0396875 0.35984375 98.204375 -0.1953125 97.34375 C-0.60523438 96.6940625 -1.01515625 96.044375 -1.4375 95.375 C-7.41118321 100.20478642 -12.36981253 105.61702952 -17.4375 111.375 C-19.85129133 114.03388399 -22.26851763 116.68958879 -24.6875 119.34375 C-26.4809104 121.25766431 -26.4809104 121.25766431 -27.4375 123.375 C-28.0975 123.375 -28.7575 123.375 -29.4375 123.375 C-29.80875 124.2103125 -29.80875 124.2103125 -30.1875 125.0625 C-31.66110953 127.78867764 -33.48047008 129.97064895 -35.4375 132.375 C-36.63585586 134.18428238 -37.8309738 135.99331597 -38.99609375 137.82421875 C-41.95605848 141.00878785 -45.41066798 141.48407485 -49.58203125 141.67578125 C-51.13795802 141.69029795 -52.69401878 141.69392437 -54.25 141.6875 C-55.01892578 141.70361328 -55.78785156 141.71972656 -56.58007812 141.73632812 C-62.17222675 141.74104724 -66.31941053 140.63888056 -71.4375 138.375 C-72.4375 137.375 -72.4375 137.375 -73 133.5 C-72.91373778 126.6852847 -68.6116022 122.40067489 -64.4375 117.375 C-63.72851562 116.488125 -63.01953125 115.60125 -62.2890625 114.6875 C-60.03617718 111.88969296 -57.74110567 109.13116588 -55.4375 106.375 C-54.51398846 105.25157694 -53.59082426 104.12786828 -52.66796875 103.00390625 C-44.11653786 92.65664558 -44.11653786 92.65664558 -39.2043457 88.78027344 C-32.1404386 83.16194412 -25.75184827 76.84648099 -19.3918457 70.4597168 C-17.8775742 68.94008332 -16.3580257 67.42587483 -14.83789062 65.91210938 C-10.0100784 61.08646496 -5.34104165 56.19280164 -0.90942383 50.99584961 C1.04174212 48.84726929 3.27651192 47.15469542 5.5625 45.375 C7.029239 43.75222493 8.44731282 42.08408929 9.8125 40.375 C10.49828125 39.529375 11.1840625 38.68375 11.890625 37.8125 C13.43911006 35.55489562 14.14210621 34.04573702 14.5625 31.375 C13.716875 31.13136719 12.87125 30.88773438 12 30.63671875 C3.826283 27.63659308 -7.22905308 21.34796484 -11.4375 13.375 C-12.4773058 10.38196783 -12.54364267 8.66542278 -12.4375 5.375 C-9.37687332 -0.24557037 -5.89737694 -0.28552177 0 0 Z " fill="#5B9BD4" transform="translate(137.4375,82.625)"/>
<path d="M0 0 C3.25289375 2.95717614 4.75169842 5.71455002 5.3828125 10.1015625 C6.04736587 24.0571832 -2.32615434 36.90869783 -11.25 47 C-12.79811493 48.63871029 -14.3613671 50.26321951 -15.9375 51.875 C-16.82824219 52.80441406 -17.71898437 53.73382813 -18.63671875 54.69140625 C-23.9766007 60.20037823 -29.45697799 65.70182868 -35.9375 69.875 C-36.5975 69.875 -37.2575 69.875 -37.9375 69.875 C-37.9375 73.175 -37.9375 76.475 -37.9375 79.875 C-37.133125 80.08125 -36.32875 80.2875 -35.5 80.5 C-26.47260465 83.98425785 -19.8551789 89.60619166 -15.625 98.375 C-14.12206198 102.05227049 -13.13847588 104.8798794 -13.9375 108.875 C-16.50043604 112.57701873 -18.69061796 115.30692048 -22.9375 116.875 C-26.36328125 117.140625 -26.36328125 117.140625 -30.25 117.125 C-31.52488281 117.13015625 -32.79976562 117.1353125 -34.11328125 117.140625 C-41.45758901 116.63049944 -45.86135619 114.70221298 -51.0625 109.5625 C-51.56136719 109.08876953 -52.06023437 108.61503906 -52.57421875 108.12695312 C-54.04386881 106.72445418 -55.49040866 105.30070821 -56.9375 103.875 C-58.32582031 102.55435547 -58.32582031 102.55435547 -59.7421875 101.20703125 C-61.9375 98.875 -61.9375 98.875 -62.9375 95.875 C-63.53175781 95.58367187 -64.12601563 95.29234375 -64.73828125 94.9921875 C-67.65417748 93.51093293 -69.10394091 91.55571075 -71.125 89 C-71.81980469 88.13632813 -72.51460938 87.27265625 -73.23046875 86.3828125 C-74.82966004 84.0334285 -75.52390597 82.63601957 -75.9375 79.875 C-76.03933594 79.235625 -76.14117187 78.59625 -76.24609375 77.9375 C-76.7738989 69.49261754 -72.95275035 62.45087479 -67.60546875 56.109375 C-65.45534922 53.90020534 -63.35425872 51.78907291 -60.9375 49.875 C-60.2775 49.875 -59.6175 49.875 -58.9375 49.875 C-58.67195313 49.27816406 -58.40640625 48.68132812 -58.1328125 48.06640625 C-56.90195225 45.80982913 -55.7028343 44.53138538 -53.8125 42.8125 C-50.06536742 39.17353208 -47.13517452 35.1756654 -44.12109375 30.921875 C-41.71108728 27.55907527 -39.21576684 24.27418263 -36.6875 21 C-36.2752417 20.46487793 -35.8629834 19.92975586 -35.43823242 19.37841797 C-34.27574233 17.87385262 -33.10673722 16.37432799 -31.9375 14.875 C-31.22078125 13.92367187 -30.5040625 12.97234375 -29.765625 11.9921875 C-29.16234375 11.29351562 -28.5590625 10.59484375 -27.9375 9.875 C-27.2775 9.875 -26.6175 9.875 -25.9375 9.875 C-25.68871094 9.28074219 -25.43992188 8.68648437 -25.18359375 8.07421875 C-23.75684287 5.55615999 -22.33322921 4.37767908 -20 2.6875 C-19.31035156 2.17832031 -18.62070313 1.66914063 -17.91015625 1.14453125 C-12.67855937 -2.22233803 -5.69119294 -2.17960581 0 0 Z " fill="#9DC3E6" transform="translate(144.9375,28.125)"/>
<path d="M0 0 C5.52506925 5.01701691 9.1689458 11.71008283 13.08300781 17.99023438 C17.66054314 25.27865485 22.86929482 31.88473163 28.49365234 38.37915039 C33.02167857 43.6134338 33.02167857 43.6134338 33.51171875 48.10546875 C33.13671875 51.66796875 33.13671875 51.66796875 31.23046875 53.3671875 C26.86717333 55.20175489 22.9467739 55.10470447 18.26171875 55.04296875 C17.38902344 55.05457031 16.51632813 55.06617188 15.6171875 55.078125 C9.12024102 55.04881547 4.13407174 54.26454573 -0.9375 49.87109375 C-1.46988281 49.2265625 -2.00226563 48.58203125 -2.55078125 47.91796875 C-3.36095703 46.96664062 -3.36095703 46.96664062 -4.1875 45.99609375 C-5.86328125 43.66796875 -5.86328125 43.66796875 -7.65625 40.3828125 C-10.05078577 36.09229147 -13.20590483 32.61086499 -16.48828125 28.98046875 C-17.65102673 27.68838705 -18.81002495 26.39292116 -19.96484375 25.09375 C-20.47354004 24.53083252 -20.98223633 23.96791504 -21.50634766 23.38793945 C-22.93712826 21.57436454 -23.90266664 19.76304802 -24.86328125 17.66796875 C-25.52328125 17.66796875 -26.18328125 17.66796875 -26.86328125 17.66796875 C-30.53572452 13.64350371 -33.26637036 9.37854465 -33.55078125 3.85546875 C-33.30512289 0.50398681 -32.98753158 -0.19003087 -30.67578125 -2.83203125 C-21.05894866 -7.96100863 -8.67158468 -6.19918318 0 0 Z " fill="#70AD47" transform="translate(168.86328125,169.33203125)"/>
</svg>
